HIERARCHY
ROOT Hips
{
	OFFSET -0.001795 -0.223333 0.028219
	CHANNELS 6 Xposition Yposition Zposition Zrotation Yrotation Xrotation 
	JOINT LeftUpLeg
	{
		OFFSET 0.069520 -0.091406 -0.006815
		CHANNELS 3 Zrotation Yrotation Xrotation
		JOINT LeftLeg
		{
			OFFSET 0.034277 -0.375199 -0.004496
			CHANNELS 3 Zrotation Yrotation Xrotation
			JOINT LeftFoot
			{
				OFFSET -0.013596 -0.397961 -0.043693
				CHANNELS 3 Zrotation Yrotation Xrotation
				JOINT LeftToe
				{
					OFFSET 0.026358 -0.055791 0.119288
					CHANNELS 3 Zrotation Yrotation Xrotation
					End Site
					{
						OFFSET 0.000000 0.000000 0.000000
					}
				}
			}
		}
	}
	JOINT RightUpLeg
	{
		OFFSET -0.067670 -0.090522 -0.004320
		CHANNELS 3 Zrotation Yrotation Xrotation
		JOINT RightLeg
		{
			OFFSET -0.038290 -0.382569 -0.008850
			CHANNELS 3 Zrotation Yrotation Xrotation
			JOINT RightFoot
			{
				OFFSET 0.015774 -0.398415 -0.042312
				CHANNELS 3 Zrotation Yrotation Xrotation
				JOINT RightToe
				{
					OFFSET -0.025372 -0.048144 0.123348
					CHANNELS 3 Zrotation Yrotation Xrotation
					End Site
					{
						OFFSET 0.000000 0.000000 0.000000
					}
				}
			}
		}
	}
	JOINT Spine
	{
		OFFSET -0.002533 0.108963 -0.026696
		CHANNELS 3 Zrotation Yrotation Xrotation
		JOINT Spine1
		{
			OFFSET 0.005487 0.135180 0.001092
			CHANNELS 3 Zrotation Yrotation Xrotation
			JOINT Spine2
			{
				OFFSET 0.001457 0.052922 0.025425
				CHANNELS 3 Zrotation Yrotation Xrotation
				JOINT Neck
				{
					OFFSET -0.002778 0.213870 -0.042857
					CHANNELS 3 Zrotation Yrotation Xrotation
					JOINT Head
					{
						OFFSET 0.005152 0.064970 0.051349
						CHANNELS 3 Zrotation Yrotation Xrotation
						End Site
						{
							OFFSET 0.000000 0.000000 0.000000
						}
					}
				}
				JOINT LeftShoulder
				{
					OFFSET 0.078845 0.121749 -0.034090
					CHANNELS 3 Zrotation Yrotation Xrotation
					JOINT LeftArm
					{
						OFFSET 0.090977 0.030469 -0.008868
						CHANNELS 3 Zrotation Yrotation Xrotation
						JOINT LeftForeArm
						{
							OFFSET 0.259612 -0.012772 -0.027456
							CHANNELS 3 Zrotation Yrotation Xrotation
							JOINT LeftHand
							{
								OFFSET 0.249234 0.008986 -0.001171
								CHANNELS 3 Zrotation Yrotation Xrotation
								End Site
								{
									OFFSET 0.000000 0.000000 0.000000
								}
							}
						}
					}
				}
				JOINT RightShoulder
				{
					OFFSET -0.081759 0.118833 -0.038615
					CHANNELS 3 Zrotation Yrotation Xrotation
					JOINT RightArm
					{
						OFFSET -0.096012 0.032551 -0.009143
						CHANNELS 3 Zrotation Yrotation Xrotation
						JOINT RightForeArm
						{
							OFFSET -0.253742 -0.013329 -0.021401
							CHANNELS 3 Zrotation Yrotation Xrotation
							JOINT RightHand
							{
								OFFSET -0.255298 0.007772 -0.005559
								CHANNELS 3 Zrotation Yrotation Xrotation
								End Site
								{
									OFFSET 0.000000 0.000000 0.000000
								}
							}
						}
					}
				}
			}
		}
	}
}
MOTION
Frames: 10
Frame Time: 0.050000
0.435784 0.964060 2.599180 -1.277768 8.147951 1.136913 0.936914 0.388073 5.880338 -0.871218 0.200570 -5.001885 3.616541 10.389908 9.053533 0.000000 0.000000 0.000000 1.703950 -0.308749 2.339089 -0.320049 0.034975 -0.089769 -1.746235 -6.913411 10.308318 0.000000 0.000000 0.000000 -2.703484 -0.026562 2.794943 5.884317 -0.582787 -26.017006 -1.002452 -2.583686 32.462348 0.633301 1.843621 -30.327499 0.000000 0.000000 0.000000 -24.669840 7.548816 -6.953173 -55.311286 -1.474384 -8.618823 -10.437634 -29.103464 4.310348 0.000000 0.000000 0.000000 13.190616 0.808163 0.383561 62.175361 1.548222 -8.195476 3.370829 29.612144 2.618154 0.000000 0.000000 0.000000 
0.435911 0.963576 2.597597 -1.299474 7.916835 1.257251 1.014693 0.353274 5.413966 -0.873171 0.197494 -4.804205 3.650461 10.448145 9.096183 0.000000 0.000000 0.000000 1.798066 -0.239721 1.758330 -0.294755 0.047203 0.310408 -1.773487 -6.997781 10.336579 0.000000 0.000000 0.000000 -2.800290 -0.020484 2.694604 5.935863 -0.603079 -25.905854 -0.826882 -2.429854 32.422545 0.762089 1.767596 -30.166514 0.000000 0.000000 0.000000 -24.692555 7.521850 -6.946780 -55.591363 -1.163211 -8.793752 -10.327391 -29.103558 4.284670 0.000000 0.000000 0.000000 13.041356 1.174577 0.563632 62.254886 1.362380 -8.288389 3.170654 29.587976 2.557732 0.000000 0.000000 0.000000 
0.436058 0.963083 2.596291 -1.386612 7.842132 1.383599 1.107769 0.313777 4.921057 -0.868049 0.193636 -4.621835 3.744740 10.524807 8.822452 0.000000 0.000000 0.000000 1.882513 -0.203116 1.441018 -0.374237 0.063162 0.469063 -1.852075 -7.144016 10.244889 0.000000 0.000000 0.000000 -2.790207 -0.015385 2.464584 5.931220 -0.614186 -25.714289 -0.722242 -2.254880 32.373840 0.749330 1.792704 -30.050857 0.000000 0.000000 0.000000 -24.738781 7.372354 -6.911713 -55.899873 -1.037033 -8.879582 -10.163112 -28.741042 4.174713 0.000000 0.000000 0.000000 12.981704 1.562332 0.775464 62.468276 1.282937 -8.329221 2.953402 29.583958 2.506021 0.000000 0.000000 0.000000 
0.436150 0.962631 2.595480 -1.422719 7.624848 1.469476 1.154905 0.281202 4.459102 -0.832964 0.189519 -4.482684 3.767846 10.605106 9.003378 0.000000 0.000000 0.000000 1.850503 -0.157605 1.076426 -0.340230 0.064505 0.616380 -1.971108 -7.459158 10.523402 0.000000 0.000000 0.000000 -2.888327 -0.008122 2.263485 5.987979 -0.634308 -25.629481 -0.665700 -2.090771 32.531671 0.825730 1.743682 -29.831520 0.000000 0.000000 0.000000 -24.724255 7.239054 -6.828664 -56.089988 -0.682095 -9.086515 -9.727550 -28.495488 4.027778 0.000000 0.000000 0.000000 12.990997 1.787661 0.892940 62.503593 0.981529 -8.501788 3.089409 29.645050 2.542785 0.000000 0.000000 0.000000 
0.436164 0.962525 2.595002 -1.469425 7.806812 1.527706 1.239842 0.251059 4.121881 -0.893808 0.189119 -4.342268 3.709682 10.459079 8.769575 0.000000 0.000000 0.000000 1.930244 -0.133345 0.867444 -0.423381 0.084325 0.857043 -2.011541 -7.474386 10.298668 0.000000 0.000000 0.000000 -3.014704 -0.005532 2.331179 6.068623 -0.654586 -25.568527 -0.625772 -2.297736 32.505265 0.699152 1.793306 -29.785859 0.000000 0.000000 0.000000 -25.012135 7.504689 -7.029943 -56.125836 0.063541 -9.427149 -9.903287 -28.272424 4.045670 0.000000 0.000000 0.000000 13.046249 1.727984 0.846464 62.281860 0.187885 -8.890475 3.444974 29.736042 2.624703 0.000000 0.000000 0.000000 
0.436047 0.962007 2.594520 -1.522570 7.986704 1.551997 1.541431 0.205055 3.750091 -1.071074 0.190927 -3.981558 3.857035 10.722178 8.807384 0.000000 0.000000 0.000000 2.037292 -0.085911 0.471535 -0.517433 0.110073 1.208451 -2.126505 -7.713268 10.478427 0.000000 0.000000 0.000000 -3.126548 -0.002434 2.323064 6.140827 -0.672371 -25.540965 -0.749619 -2.448677 32.739889 1.046914 1.593182 -29.790785 0.000000 0.000000 0.000000 -25.106487 7.767759 -7.201585 -56.249986 1.244690 -10.003288 -10.370742 -28.434103 4.199112 0.000000 0.000000 0.000000 13.044364 1.471846 0.716900 62.537811 -0.817990 -9.451521 3.601651 30.312227 2.734786 0.000000 0.000000 0.000000 
0.435694 0.961354 2.593793 -1.558763 8.211248 1.617389 1.782350 0.150294 3.159544 -1.330712 0.191140 -3.240784 3.941101 10.685699 8.123274 0.000000 0.000000 0.000000 2.145673 -0.030432 0.015938 -0.473310 0.121664 1.672338 -2.261358 -7.932962 10.354818 0.000000 0.000000 0.000000 -3.305967 0.002219 2.356869 6.169930 -0.682564 -25.440215 -0.845012 -2.827385 32.936298 1.471943 1.311773 -29.794240 0.000000 0.000000 0.000000 -25.126387 7.931214 -7.221466 -56.348554 2.051194 -10.428132 -10.971199 -28.814248 4.443340 0.000000 0.000000 0.000000 13.235944 1.555673 0.723192 62.543697 -1.739910 -9.969121 4.251424 30.227236 2.868943 0.000000 0.000000 0.000000 
0.435235 0.961015 2.592912 -1.577196 8.157316 1.731208 1.898915 0.103377 2.522336 -1.335393 0.182643 -2.775355 3.896761 10.572658 7.966792 0.000000 0.000000 0.000000 2.228449 0.042554 -0.582959 -0.521527 0.146838 2.173939 -2.240575 -7.920899 10.522690 0.000000 0.000000 0.000000 -3.638000 0.011977 2.399156 6.352301 -0.718937 -25.563243 -0.860495 -2.964339 33.352581 1.722511 1.140351 -29.827959 0.000000 0.000000 0.000000 -25.589031 8.388123 -7.547075 -56.600156 3.347492 -11.105453 -11.482334 -29.570878 4.743363 0.000000 0.000000 0.000000 13.604193 1.384752 0.619096 62.810796 -2.815997 -10.630474 4.420427 30.237300 2.914133 0.000000 0.000000 0.000000 
0.434806 0.960650 2.592224 -1.570533 8.314185 1.775769 2.066367 0.050928 1.846520 -1.509602 0.173985 -1.744388 3.845206 10.317945 7.334091 0.000000 0.000000 0.000000 2.250351 0.113337 -1.150539 -0.489768 0.162143 2.732424 -2.414807 -8.240473 10.483044 0.000000 0.000000 0.000000 -3.864445 0.017293 2.502924 6.456830 -0.749632 -25.437153 -0.995203 -2.900678 33.400613 2.083041 0.946400 -29.556308 0.000000 0.000000 0.000000 -25.471431 8.610974 -7.714572 -56.971594 4.553899 -11.730152 -12.342951 -29.953039 5.041612 0.000000 0.000000 0.000000 13.858157 1.111220 0.510688 63.204735 -4.204342 -11.402455 5.029371 30.228285 3.077738 0.000000 0.000000 0.000000 
0.434426 0.960323 2.592198 -1.570002 8.782780 1.733893 2.059806 0.040357 1.712650 -1.522058 0.168395 -1.497527 3.745330 10.106100 7.114369 0.000000 0.000000 0.000000 2.065219 0.172599 -1.610621 -0.378740 0.165640 3.353632 -2.681103 -8.713128 10.461420 0.000000 0.000000 0.000000 -3.948709 0.017700 2.534114 6.224309 -0.676104 -25.669862 -0.981325 -3.477289 33.784261 2.197036 0.900945 -30.580404 0.000000 0.000000 0.000000 -25.149317 9.002586 -7.787188 -58.128928 5.727117 -12.595113 -13.669675 -30.503582 5.574337 0.000000 0.000000 0.000000 13.799076 0.938837 0.390737 63.837731 -4.953724 -11.959951 5.789332 29.439403 3.159491 0.000000 0.000000 0.000000 
